<svg width="1343" height="248" viewBox="0 0 1343 248" fill="none" xmlns="http://www.w3.org/2000/svg">
<path d="M257.575 245H108.85C92.8437 245 78.2881 241.992 65.1826 235.977C52.0771 229.961 40.8516 221.743 31.5059 211.323C22.2676 200.903 15.124 188.657 10.0752 174.585C5.02637 160.513 2.50195 145.474 2.50195 129.468C2.50195 113.569 5.02637 98.6377 10.0752 84.6728C15.124 70.6006 22.2676 58.3545 31.5059 47.9346C40.8516 37.4072 52.0771 29.1357 65.1826 23.1201C78.2881 16.9971 92.8437 13.9355 108.85 13.9355H257.575V46.9678H108.85C97.4629 46.9678 87.2041 49.1699 78.0732 53.5742C69.0498 57.8711 61.3691 63.7793 55.0312 71.2988C48.8008 78.7109 43.9668 87.4121 40.5293 97.4023C37.1992 107.393 35.5342 118.081 35.5342 129.468C35.5342 140.854 37.1992 151.597 40.5293 161.694C43.9668 171.685 48.8008 180.439 55.0312 187.959C61.3691 195.371 69.0498 201.226 78.0732 205.522C87.2041 209.819 97.4629 211.968 108.85 211.968H257.575V245Z" fill="#C7CDD4"/>
<path d="M615.122 246H607.028C599.094 246 591.688 244.519 584.812 241.557C577.935 238.594 571.905 234.574 566.721 229.496C561.537 224.312 557.464 218.282 554.501 211.405C551.539 204.423 550.058 197.017 550.058 189.188V2.25H582.59V189.188C582.59 192.574 583.225 195.748 584.494 198.71C585.764 201.566 587.509 204.105 589.731 206.327C591.953 208.549 594.545 210.294 597.507 211.564C600.469 212.833 603.643 213.468 607.028 213.468H615.122V246ZM846.97 246H684.47C676.535 246 669.13 244.519 662.253 241.557C655.376 238.594 649.346 234.574 644.162 229.496C638.978 224.312 634.905 218.282 631.943 211.405C628.981 204.423 627.5 197.017 627.5 189.188C627.5 181.254 628.981 173.848 631.943 166.972C634.905 160.095 638.978 154.065 644.162 148.881C649.346 143.697 655.376 139.624 662.253 136.662C669.13 133.699 676.535 132.218 684.47 132.218H798.093V164.75H684.47C681.084 164.75 677.91 165.438 674.948 166.813C671.986 168.083 669.394 169.828 667.172 172.05C664.951 174.271 663.205 176.863 661.936 179.826C660.666 182.788 660.031 185.909 660.031 189.188C660.031 192.574 660.666 195.748 661.936 198.71C663.205 201.566 664.951 204.105 667.172 206.327C669.394 208.549 671.986 210.294 674.948 211.564C677.91 212.833 681.084 213.468 684.47 213.468H814.438V124.125C814.438 120.845 813.75 117.724 812.375 114.762C811.105 111.8 809.36 109.208 807.138 106.986C804.916 104.765 802.325 103.019 799.362 101.75C796.4 100.374 793.279 99.6865 789.999 99.6865H660.031V67.3135H789.999C797.934 67.3135 805.34 68.7946 812.216 71.7568C819.093 74.7191 825.123 78.7921 830.307 83.9761C835.491 89.0542 839.564 95.0316 842.526 101.908C845.489 108.785 846.97 116.19 846.97 124.125V246ZM1091.83 246H1059.3V99.6865H969.956C962.127 99.6865 954.774 101.221 947.897 104.289C941.127 107.251 935.202 111.324 930.124 116.508C925.046 121.586 921.026 127.616 918.063 134.599C915.207 141.475 913.779 148.828 913.779 156.657C913.779 164.486 915.207 171.838 918.063 178.715C921.026 185.486 925.046 191.463 930.124 196.647C935.202 201.725 941.127 205.798 947.897 208.866C954.774 211.828 962.127 213.362 969.956 213.468H1043.11V246H969.956C957.683 246 946.152 243.673 935.361 239.018C924.57 234.257 915.154 227.856 907.114 219.816C899.179 211.67 892.884 202.201 888.229 191.41C883.575 180.513 881.247 168.929 881.247 156.657C881.247 144.385 883.575 132.853 888.229 122.062C892.884 111.271 899.179 101.855 907.114 93.8149C915.154 85.6688 924.57 79.2682 935.361 74.6133C946.152 69.8525 957.683 67.4193 969.956 67.3135H1059.3V2.25H1091.83V246ZM1342.09 246H1179.59C1171.65 246 1164.25 244.519 1157.37 241.557C1150.49 238.594 1144.46 234.574 1139.28 229.496C1134.1 224.312 1130.02 218.282 1127.06 211.405C1124.1 204.423 1122.62 197.017 1122.62 189.188C1122.62 181.254 1124.1 173.848 1127.06 166.972C1130.02 160.095 1134.1 154.065 1139.28 148.881C1144.46 143.697 1150.49 139.624 1157.37 136.662C1164.25 133.699 1171.65 132.218 1179.59 132.218H1293.21V164.75H1179.59C1176.2 164.75 1173.03 165.438 1170.07 166.813C1167.1 168.083 1164.51 169.828 1162.29 172.05C1160.07 174.271 1158.32 176.863 1157.05 179.826C1155.78 182.788 1155.15 185.909 1155.15 189.188C1155.15 192.574 1155.78 195.748 1157.05 198.71C1158.32 201.566 1160.07 204.105 1162.29 206.327C1164.51 208.549 1167.1 210.294 1170.07 211.564C1173.03 212.833 1176.2 213.468 1179.59 213.468H1309.56V124.125C1309.56 120.845 1308.87 117.724 1307.49 114.762C1306.22 111.8 1304.48 109.208 1302.26 106.986C1300.03 104.765 1297.44 103.019 1294.48 101.75C1291.52 100.374 1288.4 99.6865 1285.12 99.6865H1155.15V67.3135H1285.12C1293.05 67.3135 1300.46 68.7946 1307.33 71.7568C1314.21 74.7191 1320.24 78.7921 1325.42 83.9761C1330.61 89.0542 1334.68 95.0316 1337.64 101.908C1340.61 108.785 1342.09 116.19 1342.09 124.125V246Z" fill="#C7CDD4"/>
<path d="M1162.05 43H1156.64V10.5947H1137.53V5.18945H1181.17V10.5947H1162.05V43ZM1192.34 6.56055C1192.34 7.12305 1192.24 7.65039 1192.03 8.14258C1191.82 8.61719 1191.53 9.03906 1191.16 9.4082C1190.79 9.77734 1190.36 10.0674 1189.87 10.2783C1189.37 10.4893 1188.86 10.5947 1188.31 10.5947C1187.75 10.5947 1187.22 10.4893 1186.73 10.2783C1186.24 10.0674 1185.81 9.77734 1185.44 9.4082C1185.07 9.03906 1184.78 8.61719 1184.57 8.14258C1184.36 7.65039 1184.25 7.12305 1184.25 6.56055C1184.25 6.01562 1184.36 5.49707 1184.57 5.00488C1184.78 4.5127 1185.07 4.08203 1185.44 3.71289C1185.81 3.34375 1186.24 3.05371 1186.73 2.84277C1187.22 2.61426 1187.75 2.5 1188.31 2.5C1188.86 2.5 1189.37 2.61426 1189.87 2.84277C1190.36 3.05371 1190.79 3.34375 1191.16 3.71289C1191.53 4.08203 1191.82 4.5127 1192.03 5.00488C1192.24 5.49707 1192.34 6.01562 1192.34 6.56055ZM1191 43H1185.59V13.3105H1191V43ZM1233.35 22.75C1233.35 24.0684 1233.1 25.2988 1232.61 26.4414C1232.12 27.584 1231.44 28.5859 1230.58 29.4473C1229.73 30.291 1228.73 30.959 1227.57 31.4512C1226.43 31.9434 1225.21 32.1895 1223.91 32.1895H1203.21C1203.59 32.9805 1204.08 33.71 1204.66 34.3779C1205.24 35.0459 1205.89 35.6172 1206.61 36.0918C1207.33 36.5664 1208.11 36.9355 1208.96 37.1992C1209.82 37.4629 1210.71 37.5947 1211.65 37.5947H1229.31V43H1211.65C1209.61 42.9824 1207.69 42.5869 1205.9 41.8135C1204.1 41.0225 1202.54 39.959 1201.2 38.623C1199.89 37.2695 1198.84 35.6963 1198.07 33.9033C1197.29 32.1104 1196.91 30.1943 1196.91 28.1553C1196.91 26.1162 1197.29 24.2002 1198.07 22.4072C1198.84 20.6143 1199.89 19.0498 1201.2 17.7139C1202.54 16.3604 1204.1 15.2969 1205.9 14.5234C1207.69 13.7324 1209.61 13.3281 1211.65 13.3105H1223.91C1225.21 13.3105 1226.43 13.5566 1227.57 14.0488C1228.73 14.541 1229.73 15.2178 1230.58 16.0791C1231.44 16.9229 1232.12 17.916 1232.61 19.0586C1233.1 20.2012 1233.35 21.4316 1233.35 22.75ZM1223.91 26.8105C1224.45 26.8105 1224.97 26.7051 1225.46 26.4941C1225.95 26.2832 1226.38 25.9932 1226.75 25.624C1227.12 25.2549 1227.41 24.8242 1227.62 24.332C1227.83 23.8398 1227.94 23.3125 1227.94 22.75C1227.94 22.2051 1227.83 21.6865 1227.62 21.1943C1227.41 20.7021 1227.12 20.2715 1226.75 19.9023C1226.38 19.5332 1225.95 19.2432 1225.46 19.0322C1224.97 18.8037 1224.45 18.6895 1223.91 18.6895H1211.65C1210.45 18.6895 1209.33 18.9004 1208.27 19.3223C1207.23 19.7441 1206.3 20.3242 1205.48 21.0625C1204.67 21.7832 1203.99 22.6445 1203.45 23.6465C1202.92 24.6309 1202.58 25.6855 1202.42 26.8105H1223.91ZM1268.15 18.6895H1247.9C1247.34 18.6895 1246.81 18.8037 1246.32 19.0322C1245.83 19.2432 1245.4 19.5332 1245.03 19.9023C1244.66 20.2715 1244.37 20.7021 1244.16 21.1943C1243.95 21.6865 1243.84 22.2051 1243.84 22.75V43H1238.43V22.75C1238.43 21.4316 1238.68 20.2012 1239.17 19.0586C1239.67 17.916 1240.34 16.9229 1241.2 16.0791C1242.06 15.2178 1243.07 14.541 1244.21 14.0488C1245.35 13.5566 1246.58 13.3105 1247.9 13.3105H1268.15V18.6895ZM1301.85 18.6895H1281.6C1281.04 18.6895 1280.51 18.8037 1280.02 19.0322C1279.52 19.2432 1279.09 19.5332 1278.72 19.9023C1278.35 20.2715 1278.06 20.7021 1277.85 21.1943C1277.64 21.6865 1277.54 22.2051 1277.54 22.75V43H1272.13V22.75C1272.13 21.4316 1272.38 20.2012 1272.87 19.0586C1273.36 17.916 1274.04 16.9229 1274.9 16.0791C1275.76 15.2178 1276.76 14.541 1277.91 14.0488C1279.05 13.5566 1280.28 13.3105 1281.6 13.3105H1301.85V18.6895ZM1339.13 43H1312.13C1310.81 43 1309.58 42.7539 1308.44 42.2617C1307.3 41.7695 1306.29 41.1016 1305.43 40.2578C1304.57 39.3965 1303.9 38.3945 1303.4 37.252C1302.91 36.0918 1302.67 34.8613 1302.67 33.5605C1302.67 32.2422 1302.91 31.0117 1303.4 29.8691C1303.9 28.7266 1304.57 27.7246 1305.43 26.8633C1306.29 26.002 1307.3 25.3252 1308.44 24.833C1309.58 24.3408 1310.81 24.0947 1312.13 24.0947H1331.01V29.5H1312.13C1311.57 29.5 1311.04 29.6143 1310.55 29.8428C1310.06 30.0537 1309.63 30.3438 1309.26 30.7129C1308.89 31.082 1308.6 31.5127 1308.39 32.0049C1308.18 32.4971 1308.07 33.0156 1308.07 33.5605C1308.07 34.123 1308.18 34.6504 1308.39 35.1426C1308.6 35.6172 1308.89 36.0391 1309.26 36.4082C1309.63 36.7773 1310.06 37.0674 1310.55 37.2783C1311.04 37.4893 1311.57 37.5947 1312.13 37.5947H1333.73V22.75C1333.73 22.2051 1333.61 21.6865 1333.38 21.1943C1333.17 20.7021 1332.88 20.2715 1332.51 19.9023C1332.14 19.5332 1331.71 19.2432 1331.22 19.0322C1330.73 18.8037 1330.21 18.6895 1329.67 18.6895H1308.07V13.3105H1329.67C1330.98 13.3105 1332.21 13.5566 1333.36 14.0488C1334.5 14.541 1335.5 15.2178 1336.36 16.0791C1337.22 16.9229 1337.9 17.916 1338.39 19.0586C1338.88 20.2012 1339.13 21.4316 1339.13 22.75V43Z" fill="#C7CDD4"/>
<path fill-rule="evenodd" clip-rule="evenodd" d="M504.298 147.5H426.027L344.027 99L306.299 82.4281C322.947 46.5097 359.322 21.5967 401.514 21.5967C459.443 21.5967 506.403 68.5571 506.403 126.486C506.403 133.683 505.678 140.711 504.298 147.5Z" fill="#FF6B00"/>
<path fill-rule="evenodd" clip-rule="evenodd" d="M471.858 147.5H426.027L344.027 99L336.462 95.6769C348.452 71.898 373.092 55.5885 401.541 55.5885C441.769 55.5885 474.38 88.1998 474.38 128.428C474.38 135.027 473.503 141.421 471.858 147.5Z" fill="url(#paint0_radial_0_1)"/>
<mask id="mask0_0_1" style="mask-type:alpha" maskUnits="userSpaceOnUse" x="284" y="8" width="236" height="236">
<path d="M402 244C467.17 244 520 191.17 520 126C520 60.8304 467.17 8 402 8C336.83 8 284 60.8304 284 126C284 191.17 336.83 244 402 244Z" fill="#FF0000"/>
</mask>
<g mask="url(#mask0_0_1)">
<path fill-rule="evenodd" clip-rule="evenodd" d="M519.794 118.976C516.161 57.0765 464.812 8 402 8C365.447 8 332.776 24.6201 311.132 50.7155C297.747 45.5101 284.576 41.8175 272.735 38.4979C264.007 36.0509 256.003 33.8066 249.168 31.3086L259.757 150.058L276.605 207.893L289.019 212.516L286.95 205.415L285.713 191.532C287.918 195.208 290.297 198.772 292.84 202.214L340.987 242.367L348.194 246.286C365.379 253.813 384.438 258 404.5 258C447.616 258 486.098 238.66 511.308 208.396C505.56 207.547 499.423 206.734 492.597 206.035C481.049 204.851 471.104 204.885 461.686 204.917C444.909 204.974 429.806 205.026 410.292 198.178C392.596 191.973 381.759 181.959 370.706 171.746C360.809 162.601 350.738 153.296 335.416 146.423C318.411 138.794 296.57 132.432 280.119 128.799L276.362 86.6667C283.188 89.1593 291.181 91.3997 299.897 93.8423L299.897 93.8423C320.894 99.727 346.082 106.786 369.229 121.377C381.137 128.881 388.666 137.676 396.017 146.265C404.632 156.329 413.004 166.11 427.897 173.2C467.554 192.067 522.711 184.859 553.489 171.791C556.212 135.745 557.202 90.73 546.403 103.558C541.819 109.003 532.283 114.48 519.794 118.976ZM323.753 56.0938C329.912 58.9716 336.042 62.2439 342.036 66.021C353.943 73.5248 361.471 82.3196 368.823 90.9084C377.438 100.973 385.81 110.754 400.703 117.844C432.814 133.121 475.086 131.302 506.35 123.12C504.573 66.749 458.317 21.5967 401.514 21.5967C370.675 21.5967 342.945 34.9059 323.753 56.0938Z" fill="url(#paint1_radial_0_1)"/>
</g>
<defs>
<radialGradient id="paint0_radial_0_1" cx="0" cy="0" r="1" gradientUnits="userSpaceOnUse" gradientTransform="translate(428.5 83) rotate(121.063) scale(148.261 129.684)">
<stop stop-color="#FAFF00"/>
<stop offset="1" stop-color="#FFC700" stop-opacity="0"/>
</radialGradient>
<radialGradient id="paint1_radial_0_1" cx="0" cy="0" r="1" gradientUnits="userSpaceOnUse" gradientTransform="translate(418.5 100.5) rotate(120.53) scale(158.469 194.044)">
<stop stop-color="#C7CDD4"/>
<stop offset="1" stop-color="#717579"/>
</radialGradient>
</defs>
</svg>
