<svg width="236" height="236" viewBox="0 0 236 236" fill="none" xmlns="http://www.w3.org/2000/svg">
<path fill-rule="evenodd" clip-rule="evenodd" d="M220.298 139.5H142.027L60.027 91L22.2994 74.4281C38.9473 38.5097 75.3215 13.5967 117.514 13.5967C175.443 13.5967 222.403 60.5571 222.403 118.486C222.403 125.683 221.678 132.711 220.298 139.5Z" fill="#FF6B00"/>
<path fill-rule="evenodd" clip-rule="evenodd" d="M187.858 139.5H142.027L60.027 91L52.4617 87.6769C64.452 63.898 89.0917 47.5885 117.541 47.5885C157.769 47.5885 190.38 80.1998 190.38 120.428C190.38 127.027 189.503 133.421 187.858 139.5Z" fill="url(#paint0_radial_17_75)"/>
<mask id="mask0_17_75" style="mask-type:alpha" maskUnits="userSpaceOnUse" x="0" y="0" width="236" height="236">
<path d="M118 236C183.17 236 236 183.17 236 118C236 52.8304 183.17 0 118 0C52.8304 0 0 52.8304 0 118C0 183.17 52.8304 236 118 236Z" fill="#FF0000"/>
</mask>
<g mask="url(#mask0_17_75)">
<path fill-rule="evenodd" clip-rule="evenodd" d="M235.794 110.976C232.161 49.0765 180.812 0 118 0C81.4473 0 48.7764 16.6201 27.1321 42.7155C13.7466 37.5101 0.575619 33.8175 -11.2646 30.4979C-19.9926 28.0509 -27.9974 25.8066 -34.8319 23.3086L-24.243 142.058L-7.39474 199.893L5.01912 204.516L2.95044 197.415L1.71251 183.532C3.91765 187.208 6.29731 190.772 8.84041 194.214L56.9866 234.367L64.1939 238.286C81.379 245.813 100.438 250 120.5 250C163.616 250 202.098 230.66 227.308 200.396C221.56 199.547 215.423 198.734 208.597 198.035C197.049 196.851 187.104 196.885 177.686 196.917C160.909 196.974 145.806 197.026 126.292 190.178C108.596 183.973 97.7586 173.959 86.7058 163.746C76.8085 154.601 66.7384 145.296 51.4159 138.423C34.411 130.794 12.5701 124.432 -3.88149 120.799L-7.63849 78.6667C-0.812275 81.1593 7.18139 83.3997 15.897 85.8423L15.8971 85.8423C36.8943 91.727 62.0816 98.786 85.229 113.377C97.1374 120.881 104.666 129.676 112.017 138.265C120.632 148.329 129.004 158.11 143.897 165.2C183.554 184.067 238.711 176.859 269.489 163.791C272.212 127.745 273.202 82.73 262.403 95.5577C257.819 101.003 248.283 106.48 235.794 110.976ZM39.753 48.0938C45.9118 50.9716 52.0421 54.2439 58.0356 58.021C69.9432 65.5248 77.4713 74.3196 84.823 82.9084C93.4376 92.9727 101.81 102.754 116.703 109.844C148.814 125.121 191.086 123.302 222.35 115.12C220.573 58.749 174.317 13.5967 117.514 13.5967C86.6752 13.5967 58.9446 26.9059 39.753 48.0938Z" fill="url(#paint1_radial_17_75)"/>
</g>
<defs>
<radialGradient id="paint0_radial_17_75" cx="0" cy="0" r="1" gradientUnits="userSpaceOnUse" gradientTransform="translate(144.5 75) rotate(121.063) scale(148.261 129.684)">
<stop stop-color="#FAFF00"/>
<stop offset="1" stop-color="#FFC700" stop-opacity="0"/>
</radialGradient>
<radialGradient id="paint1_radial_17_75" cx="0" cy="0" r="1" gradientUnits="userSpaceOnUse" gradientTransform="translate(134.5 92.5) rotate(120.53) scale(158.469 194.044)">
<stop stop-color="#C7CDD4"/>
<stop offset="1" stop-color="#717579"/>
</radialGradient>
</defs>
</svg>
